<svg width="235" height="204" viewBox="0 0 235 204" fill="none" xmlns="http://www.w3.org/2000/svg">
<rect x="18" y="24" width="199" height="156" fill="#7E735F" stroke="#514837" stroke-width="4"/>
<mask id="path-2-outside-1_9_6" maskUnits="userSpaceOnUse" x="9" y="57" width="220" height="99" fill="black">
<rect fill="white" x="9" y="57" width="220" height="99"/>
<path d="M13.7555 150V62.96H40.7635C50.7475 62.96 58.4275 65.9893 63.8035 72.048C69.1795 78.0213 71.8675 86.2987 71.8675 96.88V115.952C71.8675 126.619 69.1795 134.981 63.8035 141.04C58.4275 147.013 50.7475 150 40.7635 150H13.7555ZM40.5075 73.456H24.8915V139.632H40.5075C53.7342 139.632 60.3475 131.739 60.3475 115.952V96.88C60.3475 81.264 53.7342 73.456 40.5075 73.456ZM111.64 141.68C115.736 141.68 119.106 140.699 121.752 138.736C124.397 136.688 126.018 134 126.616 130.672C127.213 127.344 126.445 123.675 124.312 119.664L132.888 114.544L153.496 150H141.72L133.528 135.152C132.845 139.76 130.541 143.6 126.616 146.672C122.69 149.744 117.485 151.28 111 151.28C103.405 151.28 97.5168 149.232 93.3355 145.136C89.1542 140.955 87.0635 135.536 87.0635 128.88C87.0635 123.504 88.4715 118.896 91.2875 115.056C94.1888 111.131 98.4982 107.333 104.216 103.664C96.1088 96.8373 92.0555 89.4987 92.0555 81.648C92.0555 76.016 93.9755 71.28 97.8155 67.44C101.656 63.6 107.16 61.68 114.328 61.68C120.984 61.68 126.274 63.472 130.2 67.056C134.125 70.5547 136.088 75.5467 136.088 82.032C136.088 87.8347 134.552 92.528 131.48 96.112C128.408 99.6107 124.44 102.853 119.576 105.84L110.488 111.344C105.794 114.16 102.509 116.933 100.632 119.664C98.7542 122.309 97.8155 125.296 97.8155 128.624C97.8155 133.147 99.1382 136.475 101.784 138.608C104.429 140.656 107.714 141.68 111.64 141.68ZM102.552 81.904C102.552 84.2933 103.234 86.9387 104.6 89.84C105.965 92.656 108.354 95.728 111.768 99.056L114.456 97.392C118.21 95.0027 120.984 92.7413 122.776 90.608C124.568 88.3893 125.464 85.5733 125.464 82.16C125.464 78.32 124.397 75.5467 122.264 73.84C120.216 72.048 117.613 71.152 114.456 71.152C111.042 71.152 108.184 72.048 105.88 73.84C103.661 75.632 102.552 78.32 102.552 81.904ZM166.881 150V62.96H193.889C203.873 62.96 211.553 65.9893 216.929 72.048C222.305 78.0213 224.993 86.2987 224.993 96.88V115.952C224.993 126.619 222.305 134.981 216.929 141.04C211.553 147.013 203.873 150 193.889 150H166.881ZM193.633 73.456H178.017V139.632H193.633C206.859 139.632 213.473 131.739 213.473 115.952V96.88C213.473 81.264 206.859 73.456 193.633 73.456Z"/>
</mask>
<path d="M13.7555 150V62.96H40.7635C50.7475 62.96 58.4275 65.9893 63.8035 72.048C69.1795 78.0213 71.8675 86.2987 71.8675 96.88V115.952C71.8675 126.619 69.1795 134.981 63.8035 141.04C58.4275 147.013 50.7475 150 40.7635 150H13.7555ZM40.5075 73.456H24.8915V139.632H40.5075C53.7342 139.632 60.3475 131.739 60.3475 115.952V96.88C60.3475 81.264 53.7342 73.456 40.5075 73.456ZM111.64 141.68C115.736 141.68 119.106 140.699 121.752 138.736C124.397 136.688 126.018 134 126.616 130.672C127.213 127.344 126.445 123.675 124.312 119.664L132.888 114.544L153.496 150H141.72L133.528 135.152C132.845 139.76 130.541 143.6 126.616 146.672C122.69 149.744 117.485 151.28 111 151.28C103.405 151.28 97.5168 149.232 93.3355 145.136C89.1542 140.955 87.0635 135.536 87.0635 128.88C87.0635 123.504 88.4715 118.896 91.2875 115.056C94.1888 111.131 98.4982 107.333 104.216 103.664C96.1088 96.8373 92.0555 89.4987 92.0555 81.648C92.0555 76.016 93.9755 71.28 97.8155 67.44C101.656 63.6 107.16 61.68 114.328 61.68C120.984 61.68 126.274 63.472 130.2 67.056C134.125 70.5547 136.088 75.5467 136.088 82.032C136.088 87.8347 134.552 92.528 131.48 96.112C128.408 99.6107 124.44 102.853 119.576 105.84L110.488 111.344C105.794 114.16 102.509 116.933 100.632 119.664C98.7542 122.309 97.8155 125.296 97.8155 128.624C97.8155 133.147 99.1382 136.475 101.784 138.608C104.429 140.656 107.714 141.68 111.64 141.68ZM102.552 81.904C102.552 84.2933 103.234 86.9387 104.6 89.84C105.965 92.656 108.354 95.728 111.768 99.056L114.456 97.392C118.21 95.0027 120.984 92.7413 122.776 90.608C124.568 88.3893 125.464 85.5733 125.464 82.16C125.464 78.32 124.397 75.5467 122.264 73.84C120.216 72.048 117.613 71.152 114.456 71.152C111.042 71.152 108.184 72.048 105.88 73.84C103.661 75.632 102.552 78.32 102.552 81.904ZM166.881 150V62.96H193.889C203.873 62.96 211.553 65.9893 216.929 72.048C222.305 78.0213 224.993 86.2987 224.993 96.88V115.952C224.993 126.619 222.305 134.981 216.929 141.04C211.553 147.013 203.873 150 193.889 150H166.881ZM193.633 73.456H178.017V139.632H193.633C206.859 139.632 213.473 131.739 213.473 115.952V96.88C213.473 81.264 206.859 73.456 193.633 73.456Z" fill="white"/>
<path d="M13.7555 150H9.7555V154H13.7555V150ZM13.7555 62.96V58.96H9.7555V62.96H13.7555ZM63.8035 72.048L60.8115 74.7028L60.8209 74.7134L60.8303 74.7239L63.8035 72.048ZM63.8035 141.04L66.7767 143.716L66.7861 143.705L66.7955 143.695L63.8035 141.04ZM24.8915 73.456V69.456H20.8915V73.456H24.8915ZM24.8915 139.632H20.8915V143.632H24.8915V139.632ZM17.7555 150V62.96H9.7555V150H17.7555ZM13.7555 66.96H40.7635V58.96H13.7555V66.96ZM40.7635 66.96C49.8916 66.96 56.3668 69.6937 60.8115 74.7028L66.7955 69.3932C60.4882 62.285 51.6034 58.96 40.7635 58.96V66.96ZM60.8303 74.7239C65.3588 79.7555 67.8675 86.9671 67.8675 96.88H75.8675C75.8675 85.6302 73.0002 76.2872 66.7767 69.3721L60.8303 74.7239ZM67.8675 96.88V115.952H75.8675V96.88H67.8675ZM67.8675 115.952C67.8675 125.956 65.3552 133.265 60.8115 138.385L66.7955 143.695C73.0038 136.698 75.8675 127.281 75.8675 115.952H67.8675ZM60.8303 138.364C56.3905 143.297 49.9094 146 40.7635 146V154C51.5856 154 60.4645 150.729 66.7767 143.716L60.8303 138.364ZM40.7635 146H13.7555V154H40.7635V146ZM40.5075 69.456H24.8915V77.456H40.5075V69.456ZM20.8915 73.456V139.632H28.8915V73.456H20.8915ZM24.8915 143.632H40.5075V135.632H24.8915V143.632ZM40.5075 143.632C47.9415 143.632 54.1812 141.38 58.4536 136.281C62.6123 131.317 64.3475 124.306 64.3475 115.952H56.3475C56.3475 123.384 54.776 128.213 52.3214 131.143C49.9804 133.937 46.3002 135.632 40.5075 135.632V143.632ZM64.3475 115.952V96.88H56.3475V115.952H64.3475ZM64.3475 96.88C64.3475 88.6027 62.6088 81.6488 58.4398 76.7267C54.163 71.6774 47.9275 69.456 40.5075 69.456V77.456C46.3142 77.456 49.9986 79.1386 52.3352 81.8973C54.7796 84.7831 56.3475 89.5413 56.3475 96.88H64.3475ZM121.752 138.736L124.135 141.948L124.168 141.924L124.2 141.899L121.752 138.736ZM124.312 119.664L122.261 116.23L118.992 118.181L120.78 121.542L124.312 119.664ZM132.888 114.544L136.346 112.534L134.312 109.035L130.837 111.11L132.888 114.544ZM153.496 150V154H160.447L156.954 147.99L153.496 150ZM141.72 150L138.217 151.932L139.358 154H141.72V150ZM133.528 135.152L137.03 133.22L131.307 122.847L129.571 134.566L133.528 135.152ZM126.616 146.672L129.081 149.822L126.616 146.672ZM93.3355 145.136L90.5071 147.964L90.5217 147.979L90.5364 147.993L93.3355 145.136ZM91.2875 115.056L88.0708 112.678L88.0663 112.684L88.0619 112.691L91.2875 115.056ZM104.216 103.664L106.376 107.03L110.943 104.1L106.792 100.604L104.216 103.664ZM130.2 67.056L127.502 70.0099L127.52 70.0261L127.538 70.0421L130.2 67.056ZM131.48 96.112L134.485 98.7512L134.501 98.7333L134.517 98.7152L131.48 96.112ZM119.576 105.84L121.648 109.261L121.658 109.255L121.669 109.249L119.576 105.84ZM110.488 111.344L112.545 114.774L112.553 114.77L112.56 114.765L110.488 111.344ZM100.632 119.664L103.894 121.979L103.911 121.955L103.928 121.93L100.632 119.664ZM101.784 138.608L99.2725 141.722L99.3034 141.747L99.3348 141.771L101.784 138.608ZM104.6 89.84L100.98 91.5432L100.99 91.5642L101 91.5851L104.6 89.84ZM111.768 99.056L108.975 101.92L111.214 104.103L113.873 102.457L111.768 99.056ZM114.456 97.392L116.561 100.793L116.582 100.78L116.603 100.767L114.456 97.392ZM122.776 90.608L125.838 93.1808L125.863 93.1513L125.887 93.1213L122.776 90.608ZM122.264 73.84L119.629 76.8503L119.696 76.9084L119.765 76.9635L122.264 73.84ZM105.88 73.84L103.424 70.6826L103.395 70.7051L103.366 70.7282L105.88 73.84ZM111.64 145.68C116.382 145.68 120.647 144.536 124.135 141.948L119.368 135.524C117.565 136.861 115.089 137.68 111.64 137.68V145.68ZM124.2 141.899C127.638 139.238 129.782 135.67 130.553 131.379L122.678 129.965C122.254 132.33 121.156 134.138 119.303 135.573L124.2 141.899ZM130.553 131.379C131.355 126.907 130.253 122.317 127.843 117.786L120.78 121.542C122.636 125.032 123.07 127.781 122.678 129.965L130.553 131.379ZM126.362 123.098L134.938 117.978L130.837 111.11L122.261 116.23L126.362 123.098ZM129.429 116.554L150.037 152.01L156.954 147.99L136.346 112.534L129.429 116.554ZM153.496 146H141.72V154H153.496V146ZM145.222 148.068L137.03 133.22L130.025 137.084L138.217 151.932L145.222 148.068ZM129.571 134.566C129.049 138.084 127.33 141.033 124.15 143.522L129.081 149.822C133.751 146.167 136.64 141.436 137.484 135.738L129.571 134.566ZM124.15 143.522C121.116 145.897 116.862 147.28 111 147.28V155.28C118.108 155.28 124.265 153.591 129.081 149.822L124.15 143.522ZM111 147.28C104.128 147.28 99.3652 145.443 96.1346 142.279L90.5364 147.993C95.6685 153.021 102.682 155.28 111 155.28V147.28ZM96.1639 142.308C92.8297 138.973 91.0635 134.621 91.0635 128.88H83.0635C83.0635 136.451 85.4787 142.936 90.5071 147.964L96.1639 142.308ZM91.0635 128.88C91.0635 124.24 92.264 120.488 94.5131 117.421L88.0619 112.691C84.679 117.304 83.0635 122.768 83.0635 128.88H91.0635ZM94.5042 117.434C97.0274 114.02 100.919 110.532 106.376 107.03L102.055 100.298C96.0771 104.134 91.3503 108.242 88.0708 112.678L94.5042 117.434ZM106.792 100.604C99.2538 94.2563 96.0555 87.9424 96.0555 81.648H88.0555C88.0555 91.0549 92.9639 99.4183 101.639 106.724L106.792 100.604ZM96.0555 81.648C96.0555 77.0329 97.5846 73.3278 100.644 70.2684L94.9871 64.6116C90.3664 69.2322 88.0555 74.9991 88.0555 81.648H96.0555ZM100.644 70.2684C103.517 67.3953 107.868 65.68 114.328 65.68V57.68C106.451 57.68 99.794 59.8047 94.9871 64.6116L100.644 70.2684ZM114.328 65.68C120.248 65.68 124.487 67.2569 127.502 70.0099L132.897 64.1021C128.061 59.6871 121.719 57.68 114.328 57.68V65.68ZM127.538 70.0421C130.418 72.6093 132.088 76.3996 132.088 82.032H140.088C140.088 74.6937 137.831 68.5 132.861 64.0699L127.538 70.0421ZM132.088 82.032C132.088 87.1071 130.76 90.8055 128.442 93.5088L134.517 98.7152C138.343 94.2505 140.088 88.5622 140.088 82.032H132.088ZM128.474 93.4728C125.718 96.6118 122.079 99.6086 117.482 102.431L121.669 109.249C126.8 106.098 131.097 102.609 134.485 98.7512L128.474 93.4728ZM117.503 102.419L108.415 107.923L112.56 114.765L121.648 109.261L117.503 102.419ZM108.43 107.914C103.525 110.857 99.682 113.985 97.3353 117.398L103.928 121.93C105.336 119.882 108.063 117.463 112.545 114.774L108.43 107.914ZM97.3695 117.349C94.9989 120.689 93.8155 124.489 93.8155 128.624H101.816C101.816 126.103 102.509 123.929 103.894 121.979L97.3695 117.349ZM93.8155 128.624C93.8155 133.928 95.396 138.595 99.2725 141.722L104.295 135.494C102.88 134.354 101.816 132.366 101.816 128.624H93.8155ZM99.3348 141.771C102.798 144.452 106.987 145.68 111.64 145.68V137.68C108.441 137.68 106.06 136.86 104.232 135.445L99.3348 141.771ZM98.5515 81.904C98.5515 85.0475 99.4456 88.2822 100.98 91.5432L108.219 88.1368C107.023 85.5951 106.552 83.5392 106.552 81.904H98.5515ZM101 91.5851C102.645 94.9764 105.385 98.4199 108.975 101.92L114.56 96.192C111.323 93.0361 109.285 90.3356 108.199 88.0949L101 91.5851ZM113.873 102.457L116.561 100.793L112.35 93.9909L109.662 95.6549L113.873 102.457ZM116.603 100.767C120.522 98.2725 123.675 95.7559 125.838 93.1808L119.713 88.0352C118.292 89.7268 115.898 91.7328 112.308 94.0174L116.603 100.767ZM125.887 93.1213C128.361 90.0581 129.464 86.301 129.464 82.16H121.464C121.464 84.8457 120.774 86.7206 119.664 88.0946L125.887 93.1213ZM129.464 82.16C129.464 77.623 128.186 73.4557 124.762 70.7165L119.765 76.9635C120.607 77.6376 121.464 79.017 121.464 82.16H129.464ZM124.898 70.8297C122.005 68.299 118.417 67.152 114.456 67.152V75.152C116.809 75.152 118.426 75.797 119.629 76.8503L124.898 70.8297ZM114.456 67.152C110.31 67.152 106.544 68.2554 103.424 70.6826L108.335 76.9974C109.823 75.8406 111.775 75.152 114.456 75.152V67.152ZM103.366 70.7282C99.972 73.4697 98.5515 77.4504 98.5515 81.904H106.552C106.552 79.1896 107.35 77.7943 108.393 76.9518L103.366 70.7282ZM166.881 150H162.881V154H166.881V150ZM166.881 62.96V58.96H162.881V62.96H166.881ZM216.929 72.048L213.937 74.7028L213.946 74.7134L213.955 74.7239L216.929 72.048ZM216.929 141.04L219.902 143.716L219.911 143.705L219.92 143.695L216.929 141.04ZM178.017 73.456V69.456H174.017V73.456H178.017ZM178.017 139.632H174.017V143.632H178.017V139.632ZM170.881 150V62.96H162.881V150H170.881ZM166.881 66.96H193.889V58.96H166.881V66.96ZM193.889 66.96C203.017 66.96 209.492 69.6937 213.937 74.7028L219.92 69.3932C213.613 62.285 204.728 58.96 193.889 58.96V66.96ZM213.955 74.7239C218.484 79.7555 220.993 86.9671 220.993 96.88H228.993C228.993 85.6302 226.125 76.2872 219.902 69.3721L213.955 74.7239ZM220.993 96.88V115.952H228.993V96.88H220.993ZM220.993 115.952C220.993 125.956 218.48 133.265 213.937 138.385L219.92 143.695C226.129 136.698 228.993 127.281 228.993 115.952H220.993ZM213.955 138.364C209.516 143.297 203.034 146 193.889 146V154C204.711 154 213.589 150.729 219.902 143.716L213.955 138.364ZM193.889 146H166.881V154H193.889V146ZM193.633 69.456H178.017V77.456H193.633V69.456ZM174.017 73.456V139.632H182.017V73.456H174.017ZM178.017 143.632H193.633V135.632H178.017V143.632ZM193.633 143.632C201.067 143.632 207.306 141.38 211.579 136.281C215.737 131.317 217.473 124.306 217.473 115.952H209.473C209.473 123.384 207.901 128.213 205.446 131.143C203.105 133.937 199.425 135.632 193.633 135.632V143.632ZM217.473 115.952V96.88H209.473V115.952H217.473ZM217.473 96.88C217.473 88.6027 215.734 81.6488 211.565 76.7267C207.288 71.6774 201.052 69.456 193.633 69.456V77.456C199.439 77.456 203.124 79.1386 205.46 81.8973C207.905 84.7831 209.473 89.5413 209.473 96.88H217.473Z" fill="#514837" mask="url(#path-2-outside-1_9_6)"/>
</svg>
